PathFileType	4	(X/Y/Z)	E:\Qualisys_Data\Carbon_Farble_Plate\Data\Amateur_Runner\S14\T2\S14T2V13_c3d.trc
DataRate	CameraRate	NumFrames	NumMarkers	Units	OrigDataRate	OrigDataStartFrame	OrigNumFrames
200.000000	200.000000	4	39	mm	200.000000	279	319
Frame#	Time	LSHO			RSHO			LICST			RICST			LASIS			LHEEL			RASIS			LTROC			RTROC			SACR			LTH1			LSK4			LTH2			LTH3			RHM5			LSK2			LTH4			RTH1			LTOE			RTH2			RTH3			RTH4			LLEP			RLEP			LSK1			LSK3			RSK1			LHM5			RSK2			LFT1			RSK3			RSK4			LLME			RLME			RTOE			RHEEL			RFT1			RFT2			LFT2			
		X1	Y1	Z1	X2	Y2	Z2	X3	Y3	Z3	X4	Y4	Z4	X5	Y5	Z5	X6	Y6	Z6	X7	Y7	Z7	X8	Y8	Z8	X9	Y9	Z9	X10	Y10	Z10	X11	Y11	Z11	X12	Y12	Z12	X13	Y13	Z13	X14	Y14	Z14	X15	Y15	Z15	X16	Y16	Z16	X17	Y17	Z17	X18	Y18	Z18	X19	Y19	Z19	X20	Y20	Z20	X21	Y21	Z21	X22	Y22	Z22	X23	Y23	Z23	X24	Y24	Z24	X25	Y25	Z25	X26	Y26	Z26	X27	Y27	Z27	X28	Y28	Z28	X29	Y29	Z29	X30	Y30	Z30	X31	Y31	Z31	X32	Y32	Z32	X33	Y33	Z33	X34	Y34	Z34	X35	Y35	Z35	X36	Y36	Z36	X37	Y37	Z37	X38	Y38	Z38	X39	Y39	Z39	

280	1.395	2048.452880859375	1427.522338867188	-546.4862060546875	2022.102905273438	1431.051391601562	-243.7804107666016	1994.496948242188	984.403564453125	-520.8816528320312	2019.93115234375	986.5855102539062	-243.6418762207031	2038.237426757812	935.6094360351562	-499.222900390625	1604.522583007812	162.296142578125	-392.71923828125	2047.47119140625	946.3052978515624	-264.4494934082031	1897.366333007812	870.22607421875	-535.4400634765625	1923.267944335938	859.0050048828125	-204.9765472412109	1863.897094726562	973.2689208984376	-408.8410949707031	1939.76318359375	638.4697875976562	-535.4103393554688	1733.725463867188	333.2424926757812	-481.8361511230469	1865.741333007812	648.5758666992188	-512.2652587890625	1938.463134765625	541.4869995117188	-512.32421875	1942.908935546875	113.741943359375	-214.4589538574219	1789.183349609375	413.4262084960938	-502.7013854980469	1860.59521484375	551.5491943359375	-493.2471923828125	2133.996337890625	697.3431396484375	-216.1864929199219	1816.8046875	44.73843765258789	-446.2601623535156	2063.25439453125	666.8342895507812	-202.8719635009766	2174.4287109375	608.0331420898438	-241.8777160644531	2099.844482421875	573.5767211914062	-221.0312957763672	1880.232055664062	475.5564575195312	-503.0373840332031	2143.143798828125	522.2783813476562	-226.6938018798828	1857.772338867188	366.1556091308594	-501.2680358886719	1798.431030273438	284.2897644042969	-484.6716003417969	2096.251708984375	413.4992980957031	-226.6664733886719	1742.360595703125	49.53807067871094	-501.3362731933594	2028.172241210938	465.5564270019531	-227.7978057861328	1605.417358398438	132.8650054931641	-369.8130798339844	2028.629028320312	336.0667419433594	-238.6572265625	1969.8662109375	389.234619140625	-237.4636688232422	1665.147583007812	164.3680267333984	-460.0710144042969	1884.814331054688	236.5505676269531	-252.1450653076172	2013.761108398438	70.79644012451172	-270.65625	1824.998168945312	247.0774383544922	-310.0858154296875	1818.239135742188	212.0297088623047	-335.83935546875	1806.471435546875	227.3928833007812	-282.6891784667969	1589.2109375	132.6196594238281	-422.4875793457031
281	1.4	2065.217529296875	1432.447021484375	-544.4531860351562	2034.81005859375	1436.048461914062	-242.4889984130859	2011.798583984375	988.3544311523438	-520.1091918945312	2035.386840820312	991.6580200195312	-243.3214416503906	2054.903564453125	939.2074584960938	-498.6624755859375	1611.783935546875	170.0746917724609	-394.9216003417969	2063.54541015625	951.4566650390624	-263.7781372070312	1913.421264648438	875.1845092773438	-534.7991943359375	1939.967407226562	863.96142578125	-203.8685607910156	1880.497314453125	977.9315795898438	-409.0326843261719	1951.478881835938	643.3076171875	-535.7965698242188	1741.067504882812	339.9511413574219	-482.9469604492188	1877.594482421875	654.1636962890625	-512.3240356445312	1948.72998046875	545.5745239257812	-512.886962890625	1977.824951171875	109.6963577270508	-214.3299255371094	1797.05126953125	419.2576293945312	-503.7907409667969	1870.8251953125	557.0960083007812	-493.7630615234375	2150.784912109375	702.17041015625	-216.1351318359375	1818.983154296875	43.96528244018555	-447.1279602050781	2080.669677734375	671.9077758789062	-202.6816558837891	2191.60400390625	613.3115234375	-242.6688537597656	2117.072998046875	578.8009643554688	-221.8116760253906	1888.884643554688	481.3539123535156	-503.9472351074219	2160.67822265625	527.170654296875	-227.7412567138672	1865.384033203125	371.7720336914062	-503.0202941894531	1806.117431640625	290.4057312011719	-487.1537780761719	2117.74609375	415.6840209960938	-227.1584320068359	1744.617431640625	50.18227005004883	-502.314453125	2047.385620117188	465.0499572753906	-228.2889709472656	1611.796264648438	141.2454986572266	-371.3348693847656	2053.14404296875	335.6885681152344	-238.9634552001953	1992.394287109375	386.0003051757812	-237.8540954589844	1672.1123046875	170.0800628662109	-462.5118408203125	1914.162353515625	229.5828704833984	-252.4953918457031	2050.563232421875	70.17847442626953	-270.4733276367188	1853.381713867188	237.7013854980469	-310.3489685058594	1848.038208007812	202.5073394775391	-335.01708984375	1836.61669921875	216.4839324951172	-283.356201171875	1595.197265625	140.7087097167969	-424.1465454101562
282	1.405	2081.533203125	1437.20654296875	-542.5883178710938	2047.702270507812	1439.974487304688	-241.9705352783203	2029.159301757812	991.9390258789062	-519.745849609375	2050.20947265625	996.9884033203124	-242.3127136230469	2071.9521484375	942.9212036132812	-497.5628356933594	1619.613647460938	178.0469970703125	-397.1894836425781	2079.21728515625	956.36279296875	-262.9728088378906	1929.581787109375	879.5416259765625	-534.4762573242188	1956.56640625	868.7886962890625	-202.6006164550781	1896.747314453125	982.0194091796876	-408.9636535644531	1963.57958984375	647.3655395507812	-536.0657958984375	1748.862182617188	345.9855346679688	-484.1330871582031	1889.926391601562	659.4521484375	-512.4940185546875	1958.896850585938	550.0394287109375	-513.9436645507812	2012.80078125	106.2424545288086	-214.086181640625	1804.870361328125	425.4895935058594	-504.669921875	1881.507568359375	562.850341796875	-494.4501037597656	2167.778564453125	706.7870483398438	-216.718505859375	1821.392333984375	43.12207412719727	-448.6890258789062	2097.944580078125	676.633544921875	-203.2457733154297	2208.46533203125	618.0355834960938	-243.3326416015625	2133.910888671875	583.0555419921875	-222.8066101074219	1897.40087890625	486.4972229003906	-505.2521057128906	2177.840576171875	531.5338745117188	-227.9325408935547	1872.952758789062	377.5221252441406	-504.6590270996094	1812.658325195312	296.3442993164062	-489.2328186035156	2138.928466796875	418.3729858398438	-227.4371337890625	1747.058959960938	51.17112731933594	-503.6647033691406	2066.709716796875	463.8070983886719	-228.2651519775391	1618.91259765625	149.4579772949219	-373.0215454101562	2077.95458984375	335.1704711914062	-239.0079345703125	2015.195678710938	382.5914001464844	-238.0497589111328	1679.397705078125	175.9600219726562	-464.486083984375	1943.956909179688	222.4466705322266	-252.5913238525391	2087.268310546875	70.00453186035156	-270.5637817382812	1882.765380859375	228.0254058837891	-310.5503845214844	1879.43994140625	192.093017578125	-336.2118835449219	1866.659912109375	206.0679779052734	-283.66455078125	1602.383422851562	149.3922576904297	-426.0069274902344
283	1.41	2097.7412109375	1441.843139648438	-540.8643188476562	2060.885009765625	1443.650512695312	-241.0556182861328	2046.571655273438	995.6660766601562	-518.807373046875	2066.52490234375	1001.963012695312	-241.6071014404297	2088.765869140625	946.485107421875	-496.7388305664062	1628.271484375	185.9818572998047	-399.3015747070312	2095.1884765625	961.0003051757812	-261.9210510253906	1945.571044921875	883.9876708984375	-533.9815673828125	1972.710205078125	873.16015625	-202.1954498291016	1913.250244140625	986.3947143554688	-408.6702880859375	1975.444580078125	651.784912109375	-536.6826782226562	1756.619140625	351.9769287109375	-485.5977172851562	1902.120361328125	664.8866577148438	-512.6251220703125	1969.593505859375	554.1268310546875	-514.9107055664062	2047.9150390625	102.740478515625	-214.8219909667969	1813.58740234375	430.9559326171875	-505.8947448730469	1892.299926757812	568.3572387695312	-495.0309448242188	2184.60302734375	711.4548950195312	-216.5343170166016	1824.010986328125	42.09249114990234	-449.9411315917969	2114.4892578125	680.8457641601562	-203.0921936035156	2225.199462890625	622.7328491210938	-243.9684600830078	2150.944091796875	587.6921997070312	-222.7218780517578	1904.839965820312	494.0143737792969	-508.144775390625	2194.580078125	535.6436157226562	-228.8954010009766	1880.865844726562	383.1998291015625	-506.1851196289062	1820.55126953125	302.2864074707031	-491.4013977050781	2160.0087890625	419.6902465820312	-228.1729431152344	1750.012084960938	52.13810348510742	-504.6818542480469	2085.476318359375	462.2931213378906	-228.5895538330078	1626.568237304688	158.2109832763672	-375.03125	2102.625	334.5720825195312	-239.2402496337891	2037.866455078125	379.0135803222656	-238.0516357421875	1686.6796875	181.3986358642578	-467.0283508300781	1973.521362304688	215.7728271484375	-252.8190002441406	2124.107177734375	69.89810943603516	-270.6116333007812	1912.544555664062	218.3101348876953	-311.4403991699219	1910.7001953125	182.1523284912109	-336.0492858886719	1897.167358398438	195.869140625	-283.9173583984375	1609.430053710938	158.0481567382812	-427.8946533203125
